<?xml version="1.0" encoding="UTF-8" standalone="no" ?>
<!DOCTYPE svg PUBLIC "-//W3C//DTD SVG 1.1//EN" "http://www.w3.org/Graphics/SVG/1.1/DTD/svg11.dtd">
<svg xmlns="http://www.w3.org/2000/svg" xmlns:xlink="http://www.w3.org/1999/xlink" version="1.1" width="384" height="384" viewBox="0 0 384 384" xml:space="preserve">
<desc>Created with Fabric.js 3.6.6</desc>
<defs>
</defs>
<g transform="matrix(5.68 0 0 5.68 191.56 194.08)"  >
<path style="stroke: none; stroke-width: 1; stroke-dasharray: none; stroke-linecap: butt; stroke-dashoffset: 0; stroke-linejoin: miter; stroke-miterlimit: 4; fill: rgb(86,0,225); fill-rule: nonzero; opacity: 1;"  transform=" translate(-32, -32)" d="M 27.4252 2.02122 C 29.88 -0.673131 34.12 -0.673131 36.5748 2.02122 C 38.2033 3.80858 40.7235 4.48387 43.0275 3.75021 C 46.5006 2.64424 50.1725 4.76424 50.9513 8.32502 C 51.4679 10.6871 53.3129 12.5321 55.675 13.0487 C 59.2358 13.8275 61.3558 17.4994 60.2498 20.9725 C 59.5161 23.2765 60.1914 25.7967 61.9788 27.4252 C 64.6731 29.88 64.6731 34.12 61.9788 36.5748 C 60.1914 38.2033 59.5161 40.7235 60.2498 43.0275 C 61.3558 46.5006 59.2358 50.1725 55.675 50.9513 C 53.3129 51.4679 51.4679 53.3129 50.9513 55.675 C 50.1725 59.2358 46.5006 61.3558 43.0275 60.2498 C 40.7235 59.5161 38.2033 60.1914 36.5748 61.9788 C 34.12 64.6731 29.88 64.6731 27.4252 61.9788 C 25.7967 60.1914 23.2765 59.5161 20.9725 60.2498 C 17.4994 61.3558 13.8275 59.2358 13.0487 55.675 C 12.5321 53.3129 10.6871 51.4679 8.32502 50.9513 C 4.76424 50.1725 2.64424 46.5006 3.75021 43.0275 C 4.48387 40.7235 3.80858 38.2033 2.02122 36.5748 C -0.673131 34.12 -0.673131 29.88 2.02122 27.4252 C 3.80858 25.7967 4.48388 23.2765 3.75021 20.9725 C 2.64424 17.4994 4.76424 13.8275 8.32502 13.0487 C 10.6871 12.5321 12.5321 10.6871 13.0487 8.32502 C 13.8275 4.76424 17.4994 2.64424 20.9725 3.75021 C 23.2765 4.48388 25.7967 3.80858 27.4252 2.02122 Z" stroke-linecap="round" />
</g>
<g transform="matrix(7.68 0 0 7.68 197.45 196.64)"  >
<path style="stroke: none; stroke-width: 1; stroke-dasharray: none; stroke-linecap: butt; stroke-dashoffset: 0; stroke-linejoin: miter; stroke-miterlimit: 4; fill: rgb(255,255,255); fill-rule: evenodd; opacity: 1;"  transform=" translate(-15, -11.61)" d="M 24.8045 0.130728 C 24.6201 0.236482 21.5479 3.25395 17.9774 6.83594 L 11.4856 13.3489 L 8.4243 10.2936 C 6.74061 8.61336 5.18682 7.18441 4.97145 7.11846 C 4.08587 6.84724 3.56363 7.14865 1.75642 8.97364 L 0 10.7473 V 11.5866 V 12.4259 L 5.27849 17.7401 C 10.8781 23.3775 11.0512 23.5125 12.1178 23.0679 C 12.3732 22.9614 16.5012 18.9296 21.291 14.1086 L 30 5.34273 V 4.50091 V 3.65926 L 28.2272 1.87509 C 26.6856 0.323515 26.3687 0.0809707 25.797 0.0145157 C 25.4355 -0.0274826 24.9888 0.0248043 24.8045 0.130728 Z" stroke-linecap="round" />
</g>
</svg>