<svg width="40" height="40" viewBox="0 0 40 40" fill="none" xmlns="http://www.w3.org/2000/svg">
<circle cx="20" cy="20" r="20" fill="#D9D9D9"/>
<path fill-rule="evenodd" clip-rule="evenodd" d="M20 12.9487C18.456 12.9487 17.2043 14.1924 17.2043 15.7265C17.2043 17.2606 18.456 18.5043 20 18.5043C21.5441 18.5043 22.7957 17.2606 22.7957 15.7265C22.7957 14.1924 21.5441 12.9487 20 12.9487ZM15.914 15.7265C15.914 13.4843 17.7434 11.6667 20 11.6667C22.2567 11.6667 24.0861 13.4843 24.0861 15.7265C24.0861 17.9687 22.2567 19.7863 20 19.7863C17.7434 19.7863 15.914 17.9687 15.914 15.7265Z" fill="#111111"/>
<path fill-rule="evenodd" clip-rule="evenodd" d="M17.8885 22.7778C16.0854 22.7778 14.6237 24.2301 14.6237 26.0217C14.6237 26.1158 14.641 26.1822 14.6591 26.2208C14.6745 26.2535 14.6876 26.2627 14.6985 26.2687C15.1999 26.5397 16.6057 27.0513 20 27.0513C23.3944 27.0513 24.8001 26.5397 25.3015 26.2687C25.3125 26.2627 25.3256 26.2535 25.3409 26.2208C25.3591 26.1822 25.3764 26.1158 25.3764 26.0217C25.3764 24.2301 23.9147 22.7778 22.1116 22.7778H17.8885ZM13.3334 26.0217C13.3334 23.5221 15.3728 21.4957 17.8885 21.4957H22.1116C24.6273 21.4957 26.6667 23.5221 26.6667 26.0217C26.6667 26.4805 26.4995 27.0805 25.9183 27.3948C25.1483 27.8111 23.4966 28.3333 20 28.3333C16.5035 28.3333 14.8518 27.8111 14.0818 27.3948C13.5006 27.0805 13.3334 26.4805 13.3334 26.0217Z" fill="#111111"/>
</svg>
