<svg width="36" height="36" viewBox="0 0 36 36" fill="none" xmlns="http://www.w3.org/2000/svg">
<path d="M27.7339 13.53C30.6417 13.53 32.9989 11.1728 32.9989 8.265C32.9989 5.35722 30.6417 3 27.7339 3C24.8261 3 22.4689 5.35722 22.4689 8.265C22.4689 11.1728 24.8261 13.53 27.7339 13.53Z" fill="white"/>
<path d="M27.7339 33.03C30.6417 33.03 32.9989 30.6728 32.9989 27.765C32.9989 24.8572 30.6417 22.5 27.7339 22.5C24.8261 22.5 22.4689 24.8572 22.4689 27.765C22.4689 30.6728 24.8261 33.03 27.7339 33.03Z" fill="white"/>
<path d="M12.959 16.77C12.7498 16.7673 12.5454 16.7071 12.3682 16.596C12.1909 16.4849 12.0476 16.3271 11.954 16.14C11.824 15.8732 11.8047 15.5659 11.9002 15.285C11.9957 15.004 12.1984 14.7722 12.464 14.64L18.284 11.73C18.4149 11.6631 18.5576 11.6228 18.7041 11.6114C18.8506 11.6001 18.9979 11.618 19.1375 11.6641C19.277 11.7101 19.406 11.7834 19.517 11.8797C19.628 11.976 19.7188 12.0934 19.784 12.225C19.9151 12.4899 19.9367 12.7958 19.8441 13.0765C19.7514 13.3572 19.5521 13.5901 19.289 13.725L13.469 16.635C13.311 16.7168 13.1369 16.7629 12.959 16.77Z" fill="white"/>
<path d="M18.7939 24.405C18.6223 24.4009 18.4535 24.3599 18.2989 24.285L12.4789 21.375C12.2161 21.2399 12.0159 21.0079 11.9208 20.7281C11.8256 20.4482 11.8429 20.1424 11.9689 19.875C12.1038 19.612 12.3368 19.4126 12.6175 19.32C12.8981 19.2273 13.204 19.2489 13.4689 19.38L19.2889 22.29C19.4206 22.3553 19.538 22.4461 19.6342 22.557C19.7305 22.668 19.8038 22.797 19.8499 22.9366C19.8959 23.0761 19.9138 23.2234 19.9025 23.3699C19.8912 23.5164 19.8509 23.6592 19.784 23.79C19.6908 23.9731 19.5493 24.1273 19.3748 24.2357C19.2003 24.3441 18.9994 24.4027 18.7939 24.405Z" fill="white"/>
<path d="M13.529 18.015C13.5338 18.833 13.3435 19.6403 12.9739 20.37C12.4434 21.4307 11.5704 22.2813 10.4961 22.7839C9.42186 23.2865 8.20939 23.4116 7.05512 23.1391C5.90086 22.8666 4.87241 22.2123 4.13642 21.2823C3.40043 20.3523 3 19.201 3 18.015C3 16.829 3.40043 15.6777 4.13642 14.7477C4.87241 13.8177 5.90086 13.1634 7.05512 12.8909C8.20939 12.6184 9.42186 12.7435 10.4961 13.2461C11.5704 13.7487 12.4434 14.5993 12.9739 15.66C13.3435 16.3897 13.5338 17.1971 13.529 18.015Z" fill="white"/>
</svg>
