<svg width="16" height="13" viewBox="0 0 16 13" fill="none" xmlns="http://www.w3.org/2000/svg">
<path fill-rule="evenodd" clip-rule="evenodd" d="M8 1.18182C6.18845 1.18182 3.72102 1.33954 2.15414 1.45552C1.63378 1.49404 1.23077 1.91239 1.23077 2.42337V3.00079L7.5019 6.34619C7.81167 6.51144 8.18833 6.51144 8.4981 6.34619L14.7692 3.00079V2.42337C14.7692 1.91239 14.3662 1.49404 13.8459 1.45552C12.279 1.33954 9.81155 1.18182 8 1.18182ZM14.7692 4.35274L9.09581 7.37928C8.41432 7.74283 7.58568 7.74283 6.90419 7.37928L1.23077 4.35274V10.5766C1.23077 11.0876 1.63378 11.506 2.15414 11.5445C3.72102 11.6605 6.18845 11.8182 8 11.8182C9.81155 11.8182 12.279 11.6605 13.8459 11.5445C14.3662 11.506 14.7692 11.0876 14.7692 10.5766V4.35274ZM2.05955 0.2772C3.62737 0.161152 6.13654 0 8 0C9.86346 0 12.3726 0.161152 13.9405 0.2772C15.1121 0.363927 16 1.30478 16 2.42337V10.5766C16 11.6952 15.1121 12.6361 13.9405 12.7228C12.3726 12.8388 9.86346 13 8 13C6.13654 13 3.62737 12.8388 2.05955 12.7228C0.887859 12.6361 0 11.6952 0 10.5766V2.42337C0 1.30478 0.887858 0.363927 2.05955 0.2772Z" fill="white"/>
</svg>
