<svg width="16" height="16" viewBox="0 0 16 16" fill="none" xmlns="http://www.w3.org/2000/svg">
<g clip-path="url(#clip0_704_1092)">
<path d="M6.26663 10.6667H1.99996C1.64634 10.6667 1.3072 10.5262 1.05715 10.2761C0.807103 10.0261 0.666627 9.68696 0.666627 9.33333V7.93067C0.666447 7.75643 0.700421 7.58384 0.766627 7.42267L2.83063 2.41333C2.88081 2.29117 2.96616 2.18666 3.07583 2.11307C3.1855 2.03949 3.31455 2.00013 3.44663 2H14.6666C14.8434 2 15.013 2.07024 15.138 2.19526C15.2631 2.32029 15.3333 2.48986 15.3333 2.66667V9.33333C15.3333 9.51014 15.2631 9.67971 15.138 9.80474C15.013 9.92976 14.8434 10 14.6666 10H12.3453C12.2386 9.99997 12.1334 10.0256 12.0386 10.0746C11.9438 10.1237 11.8622 10.1948 11.8006 10.282L8.16529 15.4327C8.11934 15.4978 8.05157 15.5443 7.97427 15.5637C7.89697 15.5832 7.81526 15.5743 7.74396 15.5387L6.53463 14.9333C6.19429 14.7632 5.9224 14.4818 5.76414 14.1358C5.60587 13.7898 5.57076 13.4001 5.66463 13.0313L6.26663 10.6667ZM11.3333 8.94133V3.33333H3.89329L1.99996 7.93067V9.33333H6.26663C6.46969 9.33336 6.67007 9.37977 6.85247 9.46903C7.03487 9.55828 7.19448 9.68802 7.31911 9.84834C7.44374 10.0087 7.53011 10.1953 7.57162 10.3941C7.61313 10.5929 7.60868 10.7985 7.55863 10.9953L6.95663 13.3607C6.93779 13.4344 6.94478 13.5125 6.97643 13.5817C7.00809 13.651 7.06251 13.7073 7.13063 13.7413L7.57129 13.9613L10.7113 9.51333C10.878 9.27733 11.0913 9.084 11.3333 8.94133ZM12.6666 8.66667H14V3.33333H12.6666V8.66667Z" fill="white" fill-opacity="0.5"/>
</g>
<defs>
<clipPath id="clip0_704_1092">
<rect width="16" height="16" fill="white"/>
</clipPath>
</defs>
</svg>
